<?xml version="1.0" standalone="no"?>
<!DOCTYPE svg PUBLIC "-//W3C//DTD SVG 20010904//EN"
 "http://www.w3.org/TR/2001/REC-SVG-20010904/DTD/svg10.dtd">
<svg version="1.0" xmlns="http://www.w3.org/2000/svg"
 width="160.000000pt" height="160.000000pt" viewBox="0 0 160.000000 160.000000"
 preserveAspectRatio="xMidYMid meet">
<metadata>
Created by potrace 1.14, written by Peter Selinger 2001-2017
</metadata>
<g transform="translate(0.000000,160.000000) scale(0.100000,-0.100000)"
fill="#000000" stroke="none">
<path d="M718 1524 c-2 -1 -21 -5 -42 -8 -56 -9 -86 -17 -126 -34 -19 -9 -39
-16 -45 -18 -20 -4 -122 -68 -171 -108 -123 -99 -227 -279 -251 -436 -9 -57
-9 -181 0 -241 10 -64 50 -179 83 -235 22 -38 27 -57 25 -100 l-2 -54 49 0
c28 0 52 -4 54 -9 2 -5 33 -31 69 -58 76 -57 176 -108 246 -124 27 -6 57 -13
68 -15 11 -3 54 -7 95 -8 195 -8 357 49 514 181 33 27 48 33 88 33 l48 0 1 38
c1 20 1 46 0 57 -1 11 14 55 33 97 52 112 75 220 71 337 -4 108 -8 130 -36
215 -51 152 -151 281 -289 371 -94 62 -157 87 -275 111 -30 6 -202 13 -207 8z"/>
</g>
</svg>
